<svg xmlns="http://www.w3.org/2000/svg" viewBox="0 0 200 200">
	<path d="M 20 30 L 50 30 L 50 40 L 30 40 L 30 50 L 20 50 Z Z M 60 30 L 100 30 L 100 40 L 60 40 Z M 110 30 L 150 30 L 150 40 L 110 40 Z M 160 30 L 180 30 L 180 60 L 170 60 L 170 40 L 160 40 Z M 170 70 L 180 70 L 180 110 L 170 110 Z M 170 120 L 180 120 L 180 160 L 170 160 Z M 160 160 L 160 170 L 120 170 L 120 160 Z M 110 160 L 110 170 L 70 170 L 70 160 Z M 60 170 L 20 170 L 20 160 L 60 160 Z M 20 150 L 30 150 L 30 110 L 20 110 Z M 20 100 L 30 100 L 30 60 L 20 60 Z" fill="white"/>
</svg>